HIERARCHY
ROOT Hips
{
	OFFSET -0.001795 -0.223333 0.028219
	CHANNELS 6 Xposition Yposition Zposition Zrotation Yrotation Xrotation 
	JOINT LeftUpLeg
	{
		OFFSET 0.069520 -0.091406 -0.006815
		CHANNELS 3 Zrotation Yrotation Xrotation
		JOINT LeftLeg
		{
			OFFSET 0.034277 -0.375199 -0.004496
			CHANNELS 3 Zrotation Yrotation Xrotation
			JOINT LeftFoot
			{
				OFFSET -0.013596 -0.397961 -0.043693
				CHANNELS 3 Zrotation Yrotation Xrotation
				JOINT LeftToe
				{
					OFFSET 0.026358 -0.055791 0.119288
					CHANNELS 3 Zrotation Yrotation Xrotation
					End Site
					{
						OFFSET 0.000000 0.000000 0.000000
					}
				}
			}
		}
	}
	JOINT RightUpLeg
	{
		OFFSET -0.067670 -0.090522 -0.004320
		CHANNELS 3 Zrotation Yrotation Xrotation
		JOINT RightLeg
		{
			OFFSET -0.038290 -0.382569 -0.008850
			CHANNELS 3 Zrotation Yrotation Xrotation
			JOINT RightFoot
			{
				OFFSET 0.015774 -0.398415 -0.042312
				CHANNELS 3 Zrotation Yrotation Xrotation
				JOINT RightToe
				{
					OFFSET -0.025372 -0.048144 0.123348
					CHANNELS 3 Zrotation Yrotation Xrotation
					End Site
					{
						OFFSET 0.000000 0.000000 0.000000
					}
				}
			}
		}
	}
	JOINT Spine
	{
		OFFSET -0.002533 0.108963 -0.026696
		CHANNELS 3 Zrotation Yrotation Xrotation
		JOINT Spine1
		{
			OFFSET 0.005487 0.135180 0.001092
			CHANNELS 3 Zrotation Yrotation Xrotation
			JOINT Spine2
			{
				OFFSET 0.001457 0.052922 0.025425
				CHANNELS 3 Zrotation Yrotation Xrotation
				JOINT Neck
				{
					OFFSET -0.002778 0.213870 -0.042857
					CHANNELS 3 Zrotation Yrotation Xrotation
					JOINT Head
					{
						OFFSET 0.005152 0.064970 0.051349
						CHANNELS 3 Zrotation Yrotation Xrotation
						End Site
						{
							OFFSET 0.000000 0.000000 0.000000
						}
					}
				}
				JOINT LeftShoulder
				{
					OFFSET 0.078845 0.121749 -0.034090
					CHANNELS 3 Zrotation Yrotation Xrotation
					JOINT LeftArm
					{
						OFFSET 0.090977 0.030469 -0.008868
						CHANNELS 3 Zrotation Yrotation Xrotation
						JOINT LeftForeArm
						{
							OFFSET 0.259612 -0.012772 -0.027456
							CHANNELS 3 Zrotation Yrotation Xrotation
							JOINT LeftHand
							{
								OFFSET 0.249234 0.008986 -0.001171
								CHANNELS 3 Zrotation Yrotation Xrotation
								End Site
								{
									OFFSET 0.000000 0.000000 0.000000
								}
							}
						}
					}
				}
				JOINT RightShoulder
				{
					OFFSET -0.081759 0.118833 -0.038615
					CHANNELS 3 Zrotation Yrotation Xrotation
					JOINT RightArm
					{
						OFFSET -0.096012 0.032551 -0.009143
						CHANNELS 3 Zrotation Yrotation Xrotation
						JOINT RightForeArm
						{
							OFFSET -0.253742 -0.013329 -0.021401
							CHANNELS 3 Zrotation Yrotation Xrotation
							JOINT RightHand
							{
								OFFSET -0.255298 0.007772 -0.005559
								CHANNELS 3 Zrotation Yrotation Xrotation
								End Site
								{
									OFFSET 0.000000 0.000000 0.000000
								}
							}
						}
					}
				}
			}
		}
	}
}
MOTION
Frames: 18
Frame Time: 0.050000
0.000000 0.947142 0.000000 -1.953626 0.568665 6.702380 6.840607 -0.343474 -4.328172 1.593548 0.061377 -4.803418 0.676975 5.161836 10.023736 0.000000 0.000000 0.000000 -4.184042 0.565985 -6.268928 -1.463919 0.114260 -0.729816 0.456238 -2.926805 9.052199 0.000000 0.000000 0.000000 1.882239 0.215783 -4.832039 -0.735626 0.436422 -4.380760 -0.492261 0.131572 4.802640 3.062605 -0.862176 -14.033765 0.000000 0.000000 0.000000 -15.417925 2.891463 -2.995975 -58.386299 -6.083415 -3.965972 -9.048739 -21.022194 2.454252 0.000000 0.000000 0.000000 14.378140 -4.087319 -3.227962 63.437128 6.889109 -2.380476 5.303695 19.532110 1.482363 0.000000 0.000000 0.000000 
0.000133 0.945534 0.000705 -2.125952 -0.857985 7.248498 6.650728 -0.316101 -3.772406 2.236812 0.070871 -5.796663 1.337080 6.044042 9.705572 0.000000 0.000000 0.000000 -4.662673 0.627096 -7.084857 -0.662341 0.038951 -0.616995 1.285432 -1.358421 9.007594 0.000000 0.000000 0.000000 2.090195 0.246615 -5.266894 -1.446627 0.721014 -4.391027 0.293453 0.288903 4.430708 2.293893 -0.388893 -14.694033 0.000000 0.000000 0.000000 -16.765874 4.295057 -3.749567 -57.792494 -6.032182 -3.895659 -9.768936 -21.005930 2.617130 0.000000 0.000000 0.000000 13.667601 -4.529235 -3.485814 64.273127 6.434067 -2.656073 5.213783 19.711845 1.448931 0.000000 0.000000 0.000000 
0.000227 0.945158 0.001119 -1.797094 -0.199958 6.932482 6.554449 -0.312280 -3.535159 2.314978 0.031013 -5.123448 0.829439 5.003576 8.929015 0.000000 0.000000 0.000000 -4.994865 0.609875 -7.092098 -0.756295 0.069401 -0.178774 0.489507 -2.592414 8.155357 0.000000 0.000000 0.000000 1.766222 0.207780 -4.678768 -0.944661 0.543150 -6.043157 -0.144097 -0.488206 5.181671 1.841872 -0.203527 -14.092637 0.000000 0.000000 0.000000 -16.351068 4.184532 -3.551740 -58.071856 -5.610260 -4.194550 -9.744683 -20.877261 2.618958 0.000000 0.000000 0.000000 14.790618 -3.557175 -3.219530 62.731956 6.095798 -2.876833 4.447058 19.325711 1.296892 0.000000 0.000000 0.000000 
0.000237 0.944699 0.001537 -2.042122 -0.406288 7.400762 6.843784 -0.327664 -3.876678 2.169963 0.047072 -5.260201 1.040021 5.361358 8.977387 0.000000 0.000000 0.000000 -4.934646 0.680573 -8.148549 -0.485508 0.064918 0.348265 0.658882 -2.148940 7.896301 0.000000 0.000000 0.000000 1.703305 0.221018 -4.948497 -1.323864 0.691347 -5.840347 0.929497 -1.528101 4.379092 1.040978 0.129995 -13.437569 0.000000 0.000000 0.000000 -16.228361 5.717913 -4.071230 -59.063903 -5.717827 -4.081774 -9.215549 -20.670918 2.548695 0.000000 0.000000 0.000000 13.565945 -3.494718 -3.260058 63.147627 5.803352 -3.042786 5.136718 19.237580 1.333142 0.000000 0.000000 0.000000 
0.000147 0.944766 0.001888 -1.912466 0.075712 7.221438 6.737890 -0.328455 -3.771878 2.147421 0.056564 -5.394759 0.989010 5.385723 9.190363 0.000000 0.000000 0.000000 -5.000023 0.653348 -7.842201 -0.551711 0.058404 0.034516 0.210456 -3.076771 7.969870 0.000000 0.000000 0.000000 1.397212 0.204540 -4.715532 -0.883482 0.520600 -5.940059 0.748093 -1.867788 4.460954 0.672752 0.381812 -13.800072 0.000000 0.000000 0.000000 -16.124188 5.533242 -3.955724 -59.134269 -6.235162 -3.835521 -9.384454 -19.943353 2.483126 0.000000 0.000000 0.000000 13.665544 -3.668554 -3.361805 62.932620 6.050196 -2.907585 5.443480 18.508309 1.321004 0.000000 0.000000 0.000000 
0.000100 0.944895 0.002162 -1.924900 -0.002789 7.416826 6.744164 -0.335693 -3.928180 2.200693 0.066881 -5.647417 1.221496 5.876544 9.521423 0.000000 0.000000 0.000000 -4.951982 0.673104 -8.102195 -0.771127 0.076219 -0.065602 0.262870 -3.131783 8.377521 0.000000 0.000000 0.000000 1.158096 0.207600 -4.817546 -0.803719 0.489230 -6.068486 1.174115 -2.250670 4.523637 0.613548 0.344897 -13.385288 0.000000 0.000000 0.000000 -16.000263 5.977666 -4.068715 -59.430754 -6.495067 -3.705996 -9.341811 -19.462228 2.433670 0.000000 0.000000 0.000000 12.812007 -3.476960 -3.211856 63.338837 6.130852 -2.935463 5.496033 18.116939 1.281239 0.000000 0.000000 0.000000 
0.000055 0.944931 0.002233 -1.859267 0.274700 7.488255 6.681038 -0.345541 -4.060255 2.253882 0.074630 -5.830591 1.143341 5.938758 10.093654 0.000000 0.000000 0.000000 -4.721220 0.670292 -7.979576 -1.034202 0.090766 -0.329666 0.219572 -3.197808 8.391984 0.000000 0.000000 0.000000 1.011689 0.199396 -4.704241 -0.657431 0.430965 -5.927000 1.133911 -2.696604 4.322414 0.634113 0.338890 -13.870661 0.000000 0.000000 0.000000 -15.731511 6.119395 -4.058726 -59.418771 -6.410337 -3.712489 -9.923270 -19.507192 2.547985 0.000000 0.000000 0.000000 12.636952 -3.413265 -3.200542 63.343438 6.018101 -2.997861 5.597820 17.803625 1.260012 0.000000 0.000000 0.000000 
0.000050 0.944927 0.002082 -1.969912 0.244844 7.558727 6.584914 -0.351723 -4.214878 2.489496 0.063051 -5.854201 1.442273 6.458100 10.144712 0.000000 0.000000 0.000000 -4.372369 0.685395 -8.041727 -1.169019 0.100168 -0.408855 0.146738 -3.317757 8.292547 0.000000 0.000000 0.000000 0.913519 0.187757 -4.480380 -0.460182 0.354511 -6.128358 1.293008 -2.618234 4.149830 0.834713 0.198292 -13.551512 0.000000 0.000000 0.000000 -15.571372 6.143667 -4.059467 -59.233149 -6.207257 -3.786969 -10.516184 -19.449764 2.638586 0.000000 0.000000 0.000000 12.308365 -3.397497 -3.135133 63.317382 5.898690 -3.048957 5.917211 17.425626 1.272702 0.000000 0.000000 0.000000 
0.000004 0.944946 0.001846 -2.094409 0.300137 7.617152 6.699830 -0.359466 -4.417849 2.403933 0.063019 -5.764998 1.484591 6.526533 10.117953 0.000000 0.000000 0.000000 -4.026209 0.690350 -7.963750 -1.218836 0.086204 -0.787251 0.071657 -3.496365 8.361703 0.000000 0.000000 0.000000 0.806691 0.178054 -4.293249 -0.375445 0.324662 -6.290243 1.466072 -2.561568 4.094514 1.019958 0.091535 -13.615198 0.000000 0.000000 0.000000 -15.126730 6.236878 -4.058170 -59.450796 -6.425682 -3.671187 -10.911676 -19.408195 2.697592 0.000000 0.000000 0.000000 12.441196 -3.262852 -3.088825 62.882689 5.833244 -3.045306 5.898376 17.119203 1.247123 0.000000 0.000000 0.000000 
-0.000046 0.944843 0.001653 -2.198172 0.298385 7.751219 6.784503 -0.365692 -4.568695 2.423079 0.063109 -5.783449 1.663811 6.825745 10.108627 0.000000 0.000000 0.000000 -3.753437 0.706792 -8.076214 -1.299109 0.085189 -0.956279 0.090362 -3.377765 8.145778 0.000000 0.000000 0.000000 0.827610 0.177126 -4.279141 -0.307270 0.298303 -6.346854 1.533234 -2.386397 4.067786 1.391360 -0.122541 -13.661489 0.000000 0.000000 0.000000 -14.610167 6.150686 -3.973446 -59.685167 -6.640129 -3.564493 -11.255112 -19.342947 2.739931 0.000000 0.000000 0.000000 12.330389 -3.062979 -2.955068 62.651030 5.960851 -2.949746 5.786208 16.847435 1.215791 0.000000 0.000000 0.000000 
-0.000111 0.944651 0.001628 -2.260999 0.281332 7.779361 6.951794 -0.362623 -4.492612 2.382131 0.070848 -5.883732 1.702519 6.873257 10.054504 0.000000 0.000000 0.000000 -3.664421 0.710011 -8.078215 -1.264718 0.074238 -1.105967 0.099625 -3.364406 8.156650 0.000000 0.000000 0.000000 0.812055 0.173216 -4.198642 -0.305819 0.297340 -6.342561 1.590018 -2.248697 4.133407 1.593376 -0.228629 -13.802823 0.000000 0.000000 0.000000 -14.384459 6.106861 -3.938917 -59.711444 -6.862138 -3.459610 -11.364996 -19.495914 2.778649 0.000000 0.000000 0.000000 12.117403 -3.046056 -2.893883 62.676987 6.258686 -2.793447 5.659603 16.619931 1.185958 0.000000 0.000000 0.000000 
-0.000174 0.944289 0.001784 -2.391213 0.441219 7.839445 7.271136 -0.363480 -4.461370 2.295608 0.076974 -5.903258 1.627818 6.761095 10.056658 0.000000 0.000000 0.000000 -3.430252 0.712024 -8.018447 -1.343048 0.080591 -1.131523 -0.091990 -3.711639 8.049914 0.000000 0.000000 0.000000 0.769759 0.175100 -4.252317 -0.176040 0.243580 -6.190094 1.697452 -2.240184 3.997063 2.007740 -0.478061 -13.801714 0.000000 0.000000 0.000000 -14.122518 6.063961 -3.896389 -59.901577 -6.743192 -3.515073 -11.423829 -19.825487 2.835188 0.000000 0.000000 0.000000 11.862918 -3.093695 -2.865867 62.987896 6.240535 -2.806176 5.211995 16.773236 1.142475 0.000000 0.000000 0.000000 
-0.000268 0.944168 0.001955 -2.573018 0.442740 7.805859 7.419671 -0.358196 -4.313481 2.521638 0.070022 -5.996804 1.635917 6.760021 10.005180 0.000000 0.000000 0.000000 -3.073656 0.716948 -7.951785 -1.437967 0.083876 -1.237896 0.000412 -3.541316 8.110989 0.000000 0.000000 0.000000 0.835348 0.175949 -4.264560 -0.124917 0.222141 -6.163191 1.939663 -2.121330 4.060132 2.254161 -0.631709 -13.748141 0.000000 0.000000 0.000000 -14.276021 5.820652 -3.807152 -59.758618 -6.522607 -3.637738 -11.660157 -20.036241 2.907133 0.000000 0.000000 0.000000 11.793240 -3.100888 -2.846201 63.015681 6.397405 -2.729279 4.784076 17.303742 1.128842 0.000000 0.000000 0.000000 
-0.000346 0.943855 0.001999 -2.744897 0.360316 7.798920 7.662038 -0.356042 -4.350042 2.578039 0.055287 -5.795063 1.768315 6.958640 9.942609 0.000000 0.000000 0.000000 -2.795117 0.731504 -8.037984 -1.471498 0.090515 -1.165857 -0.031826 -3.639883 8.164903 0.000000 0.000000 0.000000 0.809896 0.177987 -4.298412 -0.019811 0.173441 -5.978974 2.163006 -1.975941 3.984586 2.414414 -0.728663 -13.716207 0.000000 0.000000 0.000000 -14.124717 5.666467 -3.721068 -59.989321 -6.335081 -3.739397 -11.603699 -20.356235 2.943671 0.000000 0.000000 0.000000 11.417266 -2.798219 -2.643420 63.419226 6.757109 -2.548665 3.774955 17.857107 1.032325 0.000000 0.000000 0.000000 
-0.000429 0.943656 0.001905 -2.815675 0.476850 7.756149 7.752039 -0.359410 -4.482295 2.544533 0.025408 -5.226115 1.758638 6.824278 9.473347 0.000000 0.000000 0.000000 -2.735486 0.736742 -8.098608 -1.476796 0.102262 -0.959967 0.083174 -3.448334 8.331194 0.000000 0.000000 0.000000 0.841344 0.185220 -4.451401 -0.072781 0.197028 -5.993988 2.236602 -1.887318 4.286684 2.462715 -0.752071 -13.720449 0.000000 0.000000 0.000000 -14.029787 5.348396 -3.569199 -60.110905 -6.144359 -3.882550 -11.561877 -20.461428 2.949310 0.000000 0.000000 0.000000 11.236687 -2.666281 -2.531161 63.602743 7.141495 -2.371908 3.393190 18.521851 1.027354 0.000000 0.000000 0.000000 
-0.000547 0.943320 0.001758 -2.831259 0.560348 7.675449 8.073408 -0.357511 -4.499352 2.291067 0.007300 -4.609756 1.824299 6.799252 8.951783 0.000000 0.000000 0.000000 -2.561026 0.746918 -8.178893 -1.616444 0.129843 -0.699697 0.199290 -3.175212 8.273527 0.000000 0.000000 0.000000 0.805222 0.194790 -4.655947 -0.154212 0.220776 -5.581465 2.355065 -2.023729 4.454323 2.288486 -0.671838 -13.551279 0.000000 0.000000 0.000000 -14.120438 5.065868 -3.420283 -60.127156 -6.027549 -3.962419 -11.232023 -20.974580 2.974163 0.000000 0.000000 0.000000 11.097291 -2.178025 -2.303447 63.874116 7.456655 -2.240415 2.382059 19.695094 0.940921 0.000000 0.000000 0.000000 
-0.000732 0.942855 0.001552 -2.828437 0.670377 7.571368 8.204772 -0.359736 -4.651123 2.244240 -0.016360 -4.104752 1.759300 6.676454 8.878899 0.000000 0.000000 0.000000 -2.484958 0.749271 -8.195391 -1.696566 0.154800 -0.391712 0.154191 -3.238367 8.221433 0.000000 0.000000 0.000000 0.795494 0.199447 -4.758181 -0.233797 0.244432 -5.164986 2.393367 -2.100364 4.517381 2.019984 -0.495543 -13.689284 0.000000 0.000000 0.000000 -14.116058 4.869629 -3.318341 -60.151912 -6.061565 -3.956070 -10.980272 -21.228775 2.966723 0.000000 0.000000 0.000000 11.044955 -1.815786 -2.134970 63.913670 8.001550 -1.952567 2.122382 20.431953 0.937506 0.000000 0.000000 0.000000 
-0.001013 0.942430 0.001289 -2.933783 0.941326 7.492924 8.475077 -0.364313 -4.824199 2.137818 -0.034408 -3.606780 1.722194 6.478277 8.331854 0.000000 0.000000 0.000000 -2.401313 0.753153 -8.235546 -1.726148 0.170213 -0.182091 0.033066 -3.431871 8.134832 0.000000 0.000000 0.000000 0.735315 0.199388 -4.783307 -0.222589 0.240074 -5.043359 2.441854 -2.169571 4.824446 1.651085 -0.259757 -13.728255 0.000000 0.000000 0.000000 -14.252238 4.388196 -3.103725 -60.130544 -6.123640 -3.966184 -10.615946 -21.775797 2.978920 0.000000 0.000000 0.000000 11.146223 -1.557631 -2.017525 63.952075 8.271248 -1.829604 1.745203 21.588478 0.936899 0.000000 0.000000 0.000000 
